<svg width="1014" height="311" viewBox="0 0 1014 311" fill="none" xmlns="http://www.w3.org/2000/svg">
<path d="M0 51.0167H66.9025C79.687 51.0167 90.8375 52.65 100.354 55.9166C109.966 59.0871 117.416 63.4106 122.703 68.8869C127.99 74.3633 131.883 80.3201 134.382 86.7572C136.881 93.0982 138.131 99.9197 138.131 107.222C138.131 131.337 125.25 148.727 99.4886 159.391C112.273 180.144 121.165 194.363 126.163 202.049C137.794 220.112 147.166 231.977 154.279 237.646C161.008 243.026 169.083 245.764 178.503 245.86L178.791 252.778H159.47C153.222 252.778 147.551 251.769 142.456 249.751C137.458 247.637 133.132 244.947 129.479 241.681C125.923 238.414 122.078 233.85 117.945 227.99C113.811 222.129 110.062 216.316 106.698 210.552C103.43 204.787 98.96 197.389 93.2886 188.358C87.6173 179.327 81.994 170.92 76.4188 163.138H17.5907V252.778H0V51.0167ZM17.5907 68.5987V155.932H64.8839C71.132 155.932 76.8033 155.548 81.8979 154.779C86.9925 154.011 91.9429 152.618 96.7491 150.6C101.555 148.582 105.544 145.94 108.717 142.674C111.985 139.407 114.58 135.084 116.503 129.703C118.425 124.323 119.386 118.078 119.386 110.968C119.386 104.627 118.377 99.007 116.358 94.107C114.34 89.1111 111.072 84.6915 106.554 80.8485C102.036 76.9093 95.7398 73.8829 87.6654 71.7692C79.5909 69.6555 69.8824 68.5987 58.5397 68.5987H17.5907Z" fill="#b8860b"/>
<path d="M204.422 51.0167H223.166V252.778H204.422V51.0167Z" fill="#b8860b"/>
<path d="M345.978 252.778H336.75L256.871 51.0167H276.769L348.285 224.819C378.853 150.072 397.309 104.435 403.653 87.9101C406.152 81.7612 407.546 76.7172 407.834 72.778C408.123 68.7428 407.642 65.7164 406.392 63.6988C405.143 61.6812 403.509 60.2881 401.49 59.5195C399.471 58.6548 387.007 55.7443 383.931 55.7443V51.0167H425.858V55.9166L345.978 252.778Z" fill="#b8860b"/>
<path d="M815.345 51.0167V232.602C815.345 259.791 812.125 279.631 805.685 292.121C799.341 304.707 788.719 311 773.82 311V304.371C783.048 304.371 789.2 300.287 792.276 292.121C795.352 284.051 796.89 268.726 796.89 246.148V51.0167H815.345Z" fill="#b8860b"/>
<path d="M946.521 0L975.358 34.8758H955.172L940.753 8.35867L926.335 34.8758H906.437L935.562 0H946.521ZM876.158 51.0167H1005.06L1011.98 87.3336H1005.06C1003.33 82.0494 1001.55 77.774 999.725 74.5074C997.995 71.2408 995.544 68.3105 992.372 65.7164C989.296 63.0263 985.403 61.1047 980.693 59.9518C975.983 58.7989 970.167 58.2224 963.246 58.2224H893.748V142.962H991.795V157.95H893.748V235.484H1014V252.778H876.158V51.0167Z" fill="#b8860b"/>
<path d="M514.654 45C525.805 45 535.519 45.9073 543.545 48.5332C546.5 49.5 552.672 51.7628 556.826 55C561.46 58.6117 567.877 64.8067 570.483 70.6169C573.235 76.427 574.973 82.0802 575.697 87.5763C576.566 93.0724 577 99.5892 577 107.127V252.397H562.152L559.98 214.71C552.884 227.115 545.964 236.694 533.22 243.447C520.476 250.042 508.964 253.34 498.682 253.34C484.634 253.34 472.397 248.943 461.971 240.149C451.689 231.198 446.548 217.693 446.548 199.635C446.548 189.742 448.286 180.948 451.761 173.253C455.237 165.559 460.161 159.356 466.532 154.645C472.904 149.934 479.711 146.008 486.951 142.868C494.192 139.727 502.592 137.45 512.149 136.037C521.707 134.467 530.251 133.446 537.782 132.975C545.457 132.504 550.856 132.268 559.98 132.268C559.98 131.012 559.835 120.946 559.545 108.069C559.401 101.16 558.821 95.4279 557.808 90.874C556.794 86.32 555.66 81.1227 552.943 76.9188C548.146 69.5 538.923 64.0033 534.957 62.5C530.5 60.8105 525.823 58.9791 516.857 58.5C507.5 58 497.5 59 489 60C474.5 62 472.5 63 464.139 65.9767L462.229 57.7196C462.229 57.7196 466.282 55.3438 468.529 54.4219C470.776 53.5 477.436 50.3391 486.415 48.2977C495.538 46.0992 504.952 45 514.654 45ZM559.98 182.675C559.98 182.675 559.98 169.328 559.98 142.632C498.288 142.632 459.532 159.883 459.532 196C459.532 208.248 462.32 219.462 469.127 227C476.078 234.538 492.799 239.794 504.239 239.794C518.287 239.794 534.886 231.983 546.036 220.363C557.332 208.586 559.98 196.023 559.98 182.675Z" fill="#b8860b"/>
<path d="M680.654 45C691.805 45 701.519 45.9073 709.545 48.5332C712.5 49.5 718.672 51.7628 722.826 55C727.46 58.6117 733.877 64.8067 736.483 70.6169C739.235 76.427 740.973 82.0802 741.697 87.5763C742.566 93.0724 743 99.5892 743 107.127V252.397H728.152L725.98 214.71C718.884 227.115 711.964 236.694 699.22 243.447C686.476 250.042 674.964 253.34 664.682 253.34C650.634 253.34 638.398 248.943 627.971 240.149C617.689 231.198 612.548 217.693 612.548 199.635C612.548 189.742 614.286 180.948 617.761 173.253C621.237 165.559 626.161 159.356 632.532 154.645C638.904 149.934 645.711 146.008 652.951 142.868C660.192 139.727 668.592 137.45 678.149 136.037C687.707 134.467 696.251 133.446 703.782 132.975C711.457 132.504 716.856 132.268 725.98 132.268C725.98 131.012 725.835 120.946 725.545 108.069C725.401 101.16 724.821 95.4279 723.808 90.874C722.794 86.32 721.66 81.1227 718.943 76.9188C714.146 69.5 704.923 64.0033 700.957 62.5C696.5 60.8105 691.823 58.9791 682.857 58.5C673.5 58 663.5 59 655 60C640.5 62 638.5 63 630.139 65.9767L628.229 57.7196C628.229 57.7196 632.282 55.3438 634.529 54.4219C636.776 53.5 643.437 50.3391 652.415 48.2977C661.539 46.0992 670.952 45 680.654 45ZM725.98 182.675C725.98 182.675 725.98 169.328 725.98 142.632C664.288 142.632 625.532 159.883 625.532 196C625.532 208.248 628.32 219.462 635.127 227C642.078 234.538 658.799 239.794 670.239 239.794C684.287 239.794 700.886 231.983 712.036 220.363C723.332 208.586 725.98 196.023 725.98 182.675Z" fill="#b8860b"/>
</svg>
